<svg xmlns="http://www.w3.org/2000/svg" xmlns:xlink="http://www.w3.org/1999/xlink" viewBox="0 0 31 26" enable-background="new 0 0 31 26"><defs><path id="a" d="M1 .7h29v24.5H1z"/></defs><clipPath id="b"><use xlink:href="#a" overflow="visible"/></clipPath><g clip-path="url(#b)"><defs><path id="c" d="M1 .7h29v24.5H1z"/></defs><clipPath id="d"><use xlink:href="#c" overflow="visible"/></clipPath><g opacity=".9" clip-path="url(#d)"><defs><path id="e" d="M-8.1-6.3H39v32.6H-8.1z"/></defs><clipPath id="f"><use xlink:href="#e" overflow="visible"/></clipPath><path clip-path="url(#f)" fill="#fff" d="M28.9 7.7c0 .3-.2.5-.5.5h-1.2c-.3 0-.5-.2-.5-.5V6.5c0-.3.2-.5.5-.5h1.2c.3 0 .5.2.5.5v1.2zm0 6c0 .3-.2.5-.5.5h-1.2c-.3 0-.5-.2-.5-.5v-1.2c0-.3.2-.5.5-.5h1.2c.3 0 .5.2.5.5v1.2zm0 5.9c0 .3-.2.5-.5.5h-1.2c-.3 0-.5-.2-.5-.5v-1.2c0-.3.2-.5.5-.5h1.2c.3 0 .5.2.5.5v1.2zm-3.6 2.7H5.7v-18h19.7v18zM4.3 8c0 .3-.2.5-.5.5H2.6c-.3 0-.5-.2-.5-.5V6.8c0-.3.2-.5.5-.5h1.2c.3 0 .5.2.5.5V8zm0 6.3c0 .3-.2.5-.5.5H2.6c-.3 0-.5-.2-.5-.5v-1.2c0-.3.2-.5.5-.5h1.2c.3 0 .5.2.5.5v1.2zm0 6.2c0 .3-.2.5-.5.5H2.6c-.3 0-.5-.2-.5-.5v-1.2c0-.3.2-.5.5-.5h1.2c.3 0 .5.2.5.5v1.2zM28.9.7v1c0 .3-.2.5-.5.5h-1.2c-.3 0-.5-.2-.5-.5v-1h-1.4v1.9H5.7V.7H4.3v1c0 .3-.2.5-.5.5H2.6c-.3 0-.5-.2-.5-.5v-1H1v24.5h1.1v-.9c0-.3.2-.5.5-.5h1.2c.3 0 .5.2.5.5v.9h1.3v-1.5h19.5v1.5h1.4v-.9c0-.3.2-.5.5-.5h1.2c.3 0 .5.2.5.5v.9H30V.7h-1.1z"/></g></g></svg>