<?xml version="1.0" encoding="utf-8"?>
<!-- Generator: Adobe Illustrator 18.0.0, SVG Export Plug-In . SVG Version: 6.00 Build 0)  -->
<!DOCTYPE svg PUBLIC "-//W3C//DTD SVG 1.1//EN" "http://www.w3.org/Graphics/SVG/1.1/DTD/svg11.dtd">
<svg version="1.1" id="Layer_1" xmlns="http://www.w3.org/2000/svg" xmlns:xlink="http://www.w3.org/1999/xlink" x="0px" y="0px"
	 viewBox="0 0 31 26" enable-background="new 0 0 31 26" xml:space="preserve">
<g>
	<defs>
		<rect id="SVGID_1_" x="1" y="0.7" width="29" height="24.5"/>
	</defs>
	<clipPath id="SVGID_2_">
		<use xlink:href="#SVGID_1_"  overflow="visible"/>
	</clipPath>
	<g clip-path="url(#SVGID_2_)">
		<defs>
			<rect id="SVGID_3_" x="1" y="0.7" width="29" height="24.5"/>
		</defs>
		<clipPath id="SVGID_4_">
			<use xlink:href="#SVGID_3_"  overflow="visible"/>
		</clipPath>
		<g opacity="0.9" clip-path="url(#SVGID_4_)">
			<g>
				<defs>
					<rect id="SVGID_5_" x="-8.1" y="-6.3" width="47.1" height="32.6"/>
				</defs>
				<clipPath id="SVGID_6_">
					<use xlink:href="#SVGID_5_"  overflow="visible"/>
				</clipPath>
				<path clip-path="url(#SVGID_6_)" fill="#FFFFFF" d="M28.9,7.7c0,0.3-0.2,0.5-0.5,0.5h-1.2c-0.3,0-0.5-0.2-0.5-0.5V6.5
					c0-0.3,0.2-0.5,0.5-0.5h1.2c0.3,0,0.5,0.2,0.5,0.5V7.7z M28.9,13.7c0,0.3-0.2,0.5-0.5,0.5h-1.2c-0.3,0-0.5-0.2-0.5-0.5v-1.2
					c0-0.3,0.2-0.5,0.5-0.5h1.2c0.3,0,0.5,0.2,0.5,0.5V13.7z M28.9,19.6c0,0.3-0.2,0.5-0.5,0.5h-1.2c-0.3,0-0.5-0.2-0.5-0.5v-1.2
					c0-0.3,0.2-0.5,0.5-0.5h1.2c0.3,0,0.5,0.2,0.5,0.5V19.6z M25.3,22.3H5.7v-18h19.7V22.3z M4.3,8c0,0.3-0.2,0.5-0.5,0.5H2.6
					C2.3,8.5,2.1,8.3,2.1,8V6.8c0-0.3,0.2-0.5,0.5-0.5h1.2c0.3,0,0.5,0.2,0.5,0.5V8z M4.3,14.3c0,0.3-0.2,0.5-0.5,0.5H2.6
					c-0.3,0-0.5-0.2-0.5-0.5v-1.2c0-0.3,0.2-0.5,0.5-0.5h1.2c0.3,0,0.5,0.2,0.5,0.5V14.3z M4.3,20.5c0,0.3-0.2,0.5-0.5,0.5H2.6
					c-0.3,0-0.5-0.2-0.5-0.5v-1.2c0-0.3,0.2-0.5,0.5-0.5h1.2c0.3,0,0.5,0.2,0.5,0.5V20.5z M28.9,0.7v1c0,0.3-0.2,0.5-0.5,0.5h-1.2
					c-0.3,0-0.5-0.2-0.5-0.5v-1h-1.4v1.9H5.7V0.7H4.3v1c0,0.3-0.2,0.5-0.5,0.5H2.6c-0.3,0-0.5-0.2-0.5-0.5v-1H1v24.5h1.1v-0.9
					c0-0.3,0.2-0.5,0.5-0.5h1.2c0.3,0,0.5,0.2,0.5,0.5v0.9h1.3v-1.5h19.5v1.5h1.4v-0.9c0-0.3,0.2-0.5,0.5-0.5h1.2
					c0.3,0,0.5,0.2,0.5,0.5v0.9H30V0.7H28.9z"/>
			</g>
		</g>
	</g>
</g>
</svg>
